<?xml version="1.0" encoding="utf-8"?>

<!DOCTYPE svg PUBLIC "-//W3C//DTD SVG 1.1//EN" "http://www.w3.org/Graphics/SVG/1.1/DTD/svg11.dtd">
<svg version="1.1" xmlns="http://www.w3.org/2000/svg" x="0px" y="0px" viewBox="103 145 200 200" >
<path id="path4352" fill="#FFFFFF" d="M201.8,163.7c-22.5,1.5-39.6,21.1-38,43.6s21.1,39.6,43.6,38.1s39.6-21.1,38.1-43.6
	C243.8,179.3,224.3,162.2,201.8,163.7z M202.2,169.7c19.3-1.3,35.9,13.2,37.2,32.5c1.2,17.3-10.4,32.4-26.7,36.3
	c0.1-0.3,0.1-0.6,0.2-0.8c0.4-1.5,0.7-3.7,0.5-3.9c-0.4-0.5,1.7-5.9,2.8-6.9c1.4-1.3,2-4.2,1.6-7.3c-0.3-2.3-0.1-3.5,0.9-6.9
	c0.8-2.6,1.6-4.5,2.2-5.2c0.5-0.6,1.6-2.3,2.3-3.7c1.3-2.7,4-5.7,5.6-6.3c1.6-0.6,3.1-3.1,3-5c-0.2-2.2-0.8-3.1-1.8-2.7
	c-0.6,0.3-1,0.2-1.5-0.4c-0.7-0.7-0.8-0.6-0.9,0.3c-0.1,0.6-0.5,1.1-0.8,1.1c-0.5,0-0.5-0.4,0.1-1.8c0.4-1,0.8-2.6,0.8-3.5
	c0-1.6-1.5-5.4-2.1-5.6c-0.2-0.1-1.6,1-3.1,2.4c-4.1,3.6-10.4,8.2-11.6,8.3c-0.5,0-1.5,0-2.2-0.2c-1.3-0.3-3.2,0.6-7.8,3.5
	c-2,1.3-3.2,1.6-5.9,1.7c-2.1,0.1-4.1,0.5-5.1,1.1c-1.5,0.9-1.6,1.1-1.3,2.2c0.2,0.7,1.2,2.1,2.4,3.3l2,2l-1.3,2
	c-0.7,1.1-1.5,2.6-1.7,3.4s-1.2,2.2-2,3.2c-1.7,1.9-5,7.2-6,9.9c-0.3,0.7-2.9,2.4-4.7,3.3c-4.2-5.3-6.8-11.9-7.3-19.2
	C168.4,187.6,182.9,171,202.2,169.7L202.2,169.7z"/>
</svg>
