<?xml version="1.0" encoding="utf-8"?>
<svg version="1.1" id="Calque_1" xmlns="http://www.w3.org/2000/svg" xmlns:xlink="http://www.w3.org/1999/xlink" x="0px" y="0px"
	 viewBox="-1.5 -1 30 30" xml:space="preserve">
<path fill="#FFFFFF" d="M1.3,17.7c0,2.7,0.9,5.1,2.8,7.2S8.4,28,11.4,28c2.9,0,5.4-1,7.3-3.1c1.9-2,2.8-4.4,2.8-7.2
	c0-1.5-0.3-2.8-0.8-4.1c-0.7,0.5-1.5,0.8-2.4,1c0.4,1,0.6,2,0.6,3.2c0,1.4-0.3,2.7-1,4c-0.7,1.2-1.6,2.2-2.8,2.8
	c-1.2,0.7-2.4,1-3.8,1c-1.4,0-2.7-0.3-3.8-1c-1.2-0.7-2.1-1.6-2.7-2.8c-0.7-1.2-1-2.5-1-4c0-2.2,0.7-4.1,2.2-5.7
	c1.5-1.5,3.3-2.3,5.3-2.3c1,0,1.9,0.2,2.7,0.5c0.1-0.7,0.3-1.5,0.8-2.4c-1.1-0.4-2.2-0.6-3.5-0.6c-3,0-5.5,1.1-7.4,3.3
	C2.2,12.6,1.3,15,1.3,17.7z M9.1,24.8l1.6,0.1c1.4-0.9,2.5-1.9,3.5-3.1c0.9-1.2,1.6-2.3,2-3.5c0.4-1.2,0.7-2.3,0.9-3.5
	c0.1-0.8,0.2-1.5,0.2-2.2c0-0.4,0-0.8-0.1-1.1c-0.1-1-0.2-1.9-0.4-2.8c-0.1-0.8-0.3-1.5-0.4-1.9l-0.3-0.7c-0.4-1.3-0.8-2.4-1.2-3.3
	s-0.7-1.6-0.9-1.9l-0.3-0.5c0.7,0.4,1.3,0.8,1.8,1.3c0.4,0.5,0.7,1,0.8,1.5c0.1,0.4,0.1,0.7,0.1,1.1v0.2c0,0.4-0.1,0.7-0.2,1
	l-0.1,0.4C16.2,7,16.2,8,16.2,9c0,1,0,1.9-0.1,2.9c-0.2,1.9-0.5,3.4-0.9,4.7c-0.4,1.3-0.9,2.4-1.4,3.4c-0.5,1-1.1,1.8-1.6,2.4
	c-0.6,0.6-1.1,1.1-1.5,1.4c-0.5,0.4-0.8,0.6-1.1,0.8L9.1,24.8z M16.8,7c0.1-0.7,0.3-1.3,0.6-1.8L18,4.5c0.2-0.3,0.6-0.5,1.1-0.7
	s1-0.4,1.3-0.5L21,3.1c0.7-0.1,1.3-0.5,1.9-1c0.6-0.5,1-1,1.2-1.4L24.4,0c0.8,1.1,1.2,2.3,1.4,3.6c0.1,0.6,0.1,1.1,0.1,1.6
	c0,0.6-0.1,1.2-0.2,1.7l-0.3,1.3c-0.2,0.6-0.5,1.2-0.9,1.7c-0.4,0.5-0.7,0.8-1,1L23,11.1c-0.6,0.4-1.3,0.6-1.9,0.6l-3.1-1.5
	c1.1-0.6,2-1.2,2.8-1.8s1.4-1.2,1.8-1.6c0.4-0.5,0.7-0.9,0.9-1.2c0.2-0.4,0.4-0.7,0.4-0.9l0.1-0.3c-0.3,0.7-0.8,1.4-1.4,2
	c-0.6,0.6-1.1,1.1-1.7,1.5c-0.6,0.4-1.2,0.7-1.7,0.9c-0.5,0.3-1,0.4-1.3,0.5l-0.5,0.1c-0.5-0.8-0.7-1.6-0.7-2.2
	C16.8,7.2,16.8,7.1,16.8,7z"/>
</svg>
